# xmcd CD database file generated by Grip 3.0.5
# 
# Track frame offsets:
#       183
#       12130
#       24283
#       38098
#       52383
#       65475
#       77160
#       90615
#       103585
#       116770
#       129850
#       143908
#       157640
#       170473
#       185053
#       198483
#       213278
#       225885
#       238793
#       251053
#       264448
#       278803
# 
# Disc length: 3897 seconds
# 
# Revision: 1
# Processed by: cddbd v1.5.1PL0 Copyright (c) Steve Scherf et al.
# Submitted via: Grip 3.0.5
# 
DISCID=280f3716
DTITLE=Duke Ellington - Volume 4:  1928
DYEAR=1992
DGENRE=Jazz
TTITLE0=Take It Easy
TTITLE1=Jubilee Stomp
TTITLE2=Black Beauty
TTITLE3=Black Beauty
TTITLE4=Black Beauty
TTITLE5=Jubilee Stomp
TTITLE6=Got Everything But You
TTITLE7=Yellow Dog Blues
TTITLE8=Tishomingo Blues
TTITLE9=Diga Diga Doo
TTITLE10=Doin' The New Lowdown
TTITLE11=Black Beauty
TTITLE12=Swampy River
TTITLE13=The Mooche
TTITLE14=Move Over
TTITLE15=Hot And Bothered
TTITLE16=The Mooche
TTITLE17=The Mooche
TTITLE18=Hot And Bothered
TTITLE19=Move Over
TTITLE20=The Mooche
TTITLE21=Louisiana
EXTD=YEAR: 1992
EXTT0=
EXTT1=
EXTT2=
EXTT3=
EXTT4=
EXTT5=
EXTT6=
EXTT7=
EXTT8=
EXTT9=
EXTT10=
EXTT11=
EXTT12=
EXTT13=
EXTT14=
EXTT15=
EXTT16=
EXTT17=
EXTT18=
EXTT19=
EXTT20=
EXTT21=
PLAYORDER=
